<?xml version="1.0" standalone="no"?>
<!DOCTYPE svg PUBLIC "-//W3C//DTD SVG 20010904//EN"
 "http://www.w3.org/TR/2001/REC-SVG-20010904/DTD/svg10.dtd">
<svg version="1.0" xmlns="http://www.w3.org/2000/svg"
 width="260.000000pt" height="260.000000pt" viewBox="0 0 260.000000 260.000000"
 preserveAspectRatio="xMidYMid meet">
<metadata>
Created by potrace 1.14, written by Peter Selinger 2001-2017
</metadata>
<g transform="translate(0.000000,260.000000) scale(0.100000,-0.100000)"
fill="#000000" stroke="none">
<path d="M1335 2280 c-489 -115 -560 -131 -596 -128 -42 2 -26 14 -313 -235
-87 -76 -169 -143 -182 -149 -13 -6 -26 -18 -28 -27 -9 -29 -96 -504 -96 -521
0 -10 18 -60 41 -111 23 -52 72 -166 111 -254 38 -88 73 -165 76 -172 4 -6
103 -90 220 -187 158 -131 220 -176 240 -176 15 0 54 -2 87 -4 33 -3 159 -7
280 -11 121 -4 251 -11 290 -16 l69 -10 266 129 c146 71 291 139 323 153 52
21 72 39 170 153 72 82 126 135 152 148 50 26 56 35 43 67 -5 14 -23 181 -39
370 -20 246 -33 349 -43 360 -36 42 -241 393 -260 446 -15 43 -27 61 -41 63
-11 2 -129 39 -262 83 -133 43 -257 78 -275 78 -18 -1 -123 -23 -233 -49z
m500 -94 l70 -25 -132 0 -131 -1 -16 47 c-9 26 -16 48 -16 49 0 3 141 -40 225
-70z m-465 9 l-34 -35 -115 1 -116 1 140 33 c77 18 144 33 149 34 6 0 -5 -15
-24 -34z m94 -10 c-9 -14 -21 -25 -27 -25 -6 0 0 11 13 25 13 14 25 25 27 25
2 0 -4 -11 -13 -25z m-235 -111 l-26 -25 -124 25 -124 24 150 1 150 1 -26 -26z
m161 22 c0 -2 -12 -19 -27 -37 -23 -29 -33 -34 -57 -29 l-30 5 40 32 c32 27
74 43 74 29z m218 -25 c10 -27 9 -28 -35 -38 l-44 -10 7 31 c9 42 12 46 39 46
16 0 26 -8 33 -29z m148 9 c-73 -20 -86 -19 -86 6 0 11 16 14 78 13 l77 -1
-69 -18z m280 -48 c-17 -16 -18 -16 -5 5 7 12 15 20 18 17 3 -2 -3 -12 -13
-22z m-1242 -164 c6 -27 5 -28 -35 -28 l-41 0 7 68 c11 121 15 125 40 52 12
-36 25 -77 29 -92z m300 139 c37 -10 45 -15 35 -23 -10 -8 -27 -5 -64 12 -55
26 -45 30 29 11z m-90 -52 l59 -26 -26 -27 -26 -26 -27 25 c-14 13 -39 41 -56
62 -34 42 -36 43 76 -8z m900 8 c-9 -16 -41 -64 -70 -107 -53 -79 -53 -79 -63
-52 -26 67 -26 67 62 128 45 31 84 57 86 57 2 1 -5 -11 -15 -26z m-1241 -55
l-6 -68 -39 0 -40 0 21 33 c12 17 31 49 43 69 12 21 23 37 24 35 1 -1 0 -32
-3 -69z m607 62 c19 -5 21 -9 10 -13 -50 -21 -72 -26 -85 -20 -14 5 -14 8 1
24 18 20 33 22 74 9z m-358 -82 l40 -48 -34 0 c-31 0 -34 3 -61 67 -25 61 -26
65 -6 47 12 -10 39 -40 61 -66z m-409 -48 c-81 -129 -75 -125 -145 -98 -26 10
-25 11 90 113 65 57 120 104 124 104 4 1 -27 -53 -69 -119z m1097 106 c-14 -8
-29 -12 -34 -8 -10 6 20 20 44 21 8 0 4 -6 -10 -13z m-150 -60 c0 -8 -7 -17
-16 -20 -21 -8 -26 -3 -18 18 8 20 34 21 34 2z m206 -1 c-23 -17 -36 -19 -36
-6 0 11 18 19 40 20 11 0 10 -3 -4 -14z m398 -118 l-7 -115 -42 -4 -42 -3 24
65 c14 36 35 91 46 122 11 32 22 56 24 54 2 -1 0 -55 -3 -119z m-122 -25 c-31
-86 -40 -102 -59 -102 -34 0 -53 11 -53 31 0 17 138 184 146 176 2 -2 -13 -49
-34 -105z m-394 63 c-3 -3 -9 2 -12 12 -6 14 -5 15 5 6 7 -7 10 -15 7 -18z
m169 -6 l12 -32 -24 23 c-13 13 -22 27 -19 31 10 16 20 9 31 -22z m-303 -26
c9 -57 7 -203 -3 -203 -5 0 -14 19 -20 43 -24 97 -75 127 -228 135 l-103 5 0
-441 c0 -302 4 -449 11 -465 14 -30 48 -47 94 -47 24 0 35 -5 35 -15 0 -13
-31 -15 -215 -15 -184 0 -215 2 -215 15 0 11 12 15 45 15 63 0 91 29 100 101
3 30 5 232 3 449 l-3 395 -52 3 c-29 2 -86 -1 -125 -7 -65 -9 -77 -14 -105
-45 -18 -20 -38 -55 -44 -81 -6 -25 -15 -45 -20 -45 -11 0 -12 91 -3 179 l7
61 417 0 417 0 7 -37z m913 -100 c-1 0 -10 -3 -20 -5 -15 -2 -23 9 -38 57 -27
86 -24 88 20 15 22 -36 39 -66 38 -67z m-188 10 c0 -18 -3 -33 -9 -33 -6 0 -9
27 -9 63 1 49 3 56 9 32 4 -16 8 -45 9 -62z m-1609 42 c0 -17 -4 -23 -15 -19
-11 5 -12 10 -2 25 15 25 17 24 17 -6z m1685 -63 c-8 -9 -12 1 -18 48 l-6 45
15 -44 c7 -25 12 -47 9 -49z m-951 42 c13 -5 13 -9 -1 -40 l-17 -34 -29 27
-28 28 28 12 c15 7 29 12 30 13 1 0 8 -3 17 -6z m385 -35 c48 -20 52 -24 35
-36 -19 -14 -90 -18 -97 -5 -3 4 -8 22 -12 41 -6 27 -4 33 6 28 8 -3 38 -15
68 -28z m-861 5 c-8 -9 -24 -14 -34 -11 -17 3 -16 5 6 15 36 16 47 14 28 -4z
m726 -15 c7 -38 1 -49 -28 -49 -31 0 -42 37 -19 62 24 26 40 22 47 -13z
m-1195 -16 c17 -21 31 -42 31 -48 0 -5 -30 -55 -66 -110 -36 -55 -64 -89 -61
-75 3 14 16 80 28 148 12 67 26 122 30 122 4 0 21 -17 38 -37z m561 -13 c0
-17 -26 -40 -44 -40 -14 0 -4 44 11 56 21 15 33 9 33 -16z m285 -10 l28 -29
-27 -11 c-61 -23 -76 -23 -76 -2 0 15 34 72 44 72 1 0 15 -13 31 -30z m-431
-44 c-8 -27 -11 -29 -23 -21 -6 3 -11 17 -11 30 0 18 4 22 20 18 16 -4 19 -11
14 -27z m1663 -276 c-2 -13 -78 244 -77 262 0 4 12 14 28 22 l27 14 12 -141
c7 -78 12 -149 10 -157z m-337 270 c0 -17 -3 -18 -26 -8 -23 11 -24 13 -7 19
29 12 33 10 33 -11z m100 0 c0 -10 -9 -24 -20 -30 -18 -10 -20 -8 -20 20 0 23
4 30 20 30 13 0 20 -7 20 -20z m-1660 -129 c0 -4 -56 -32 -124 -63 l-125 -55
48 71 c26 39 61 91 76 116 l28 44 48 -53 c27 -29 49 -56 49 -60z m94 48 c6 -5
2 -11 -8 -15 -13 -5 -29 5 -59 36 l-42 43 50 -28 c28 -15 54 -31 59 -36z m274
0 c-20 -13 -25 -11 -31 12 -4 14 1 22 16 28 18 7 23 5 25 -12 2 -11 -2 -24
-10 -28z m658 25 c19 -3 40 -41 30 -52 -2 -2 -35 12 -72 32 l-69 34 45 -4 c25
-3 55 -7 66 -10z m754 -56 c12 -40 46 -155 76 -254 30 -100 54 -184 54 -188 0
-11 -89 66 -96 83 -11 26 -81 421 -76 426 14 14 23 -1 42 -67z m-1129 35 c-5
-10 -21 -29 -35 -42 l-26 -24 0 32 c0 23 6 34 23 41 37 15 49 12 38 -7z m1050
-149 l25 -145 -47 53 c-31 34 -48 62 -49 79 0 14 -3 48 -7 74 -4 32 -3 46 4
42 6 -4 15 5 21 18 7 14 15 25 20 25 4 0 19 -66 33 -146z m-783 112 c26 -14
56 -31 67 -39 19 -15 19 -16 1 -36 -11 -12 -22 -21 -26 -21 -4 0 -28 27 -53
60 -26 33 -45 60 -42 60 3 0 27 -11 53 -24z m642 -41 l0 -55 -109 0 -108 0 -6
-47 c-33 -260 -29 -399 10 -429 10 -7 35 -14 56 -14 42 0 73 24 83 65 3 14 11
25 16 25 15 0 1 -67 -25 -119 -32 -64 -66 -86 -135 -86 -140 2 -163 81 -122
411 27 215 32 194 -46 194 -81 0 -125 -19 -150 -66 -21 -39 -50 -48 -38 -11
24 79 83 155 134 176 14 5 118 10 233 10 l207 1 0 -55z m-870 -65 l0 -90 -34
17 c-19 9 -36 24 -39 33 -4 14 59 129 71 130 1 0 2 -40 2 -90z m209 -20 c19
-25 19 -26 -3 -53 l-23 -28 -18 68 c-10 37 -20 75 -22 83 -5 15 32 -24 66 -70z
m-621 48 c26 -26 4 -99 -29 -97 -22 0 -60 55 -53 74 11 29 62 43 82 23z m512
-156 c0 -10 -5 -10 -20 -2 -18 9 -20 20 -19 93 l1 82 19 -80 c10 -44 19 -86
19 -93z m-689 76 c-8 -22 -17 -26 -78 -31 -37 -4 -90 -7 -118 -6 -48 0 -46 1
70 38 66 21 124 35 128 31 4 -4 3 -18 -2 -32z m279 7 c0 -8 -7 -15 -16 -15
-14 0 -14 3 -4 15 7 8 14 15 16 15 2 0 4 -7 4 -15z m1174 -22 c20 -25 40 -73
30 -73 -9 0 -84 40 -84 45 0 8 23 55 28 55 2 0 14 -12 26 -27z m-358 -19 c-3
-9 -6 -25 -7 -37 -1 -18 -2 -16 -9 7 -10 31 -6 46 12 46 5 0 7 -7 4 -16z m-82
-32 c10 -16 18 -82 10 -82 -5 0 -22 16 -38 36 -23 29 -26 38 -15 45 17 11 36
11 43 1z m-734 -11 c0 -6 -4 -13 -10 -16 -5 -3 -10 1 -10 9 0 9 5 16 10 16 6
0 10 -4 10 -9z m-182 -21 c-15 -23 -38 -27 -38 -6 0 8 10 17 23 19 12 2 23 5
25 6 1 0 -3 -8 -10 -19z m482 -15 c0 -8 -2 -15 -4 -15 -2 0 -6 7 -10 15 -3 8
-1 15 4 15 6 0 10 -7 10 -15z m690 -46 l-21 -44 5 38 c3 22 11 46 18 54 21 26
20 -1 -2 -48z m-1432 32 c46 -11 86 -21 88 -24 3 -3 -5 -26 -18 -51 l-24 -47
-84 62 c-47 34 -89 65 -94 70 -16 15 42 10 132 -10z m1101 -23 c43 -58 27 -67
-50 -31 l-63 29 22 22 c33 33 56 27 91 -20z m-284 12 c3 -5 1 -10 -4 -10 -6 0
-11 5 -11 10 0 6 2 10 4 10 3 0 8 -4 11 -10z m-121 -61 c-3 -5 -14 -9 -25 -9
-15 0 -19 7 -19 32 l0 31 25 -23 c13 -12 22 -27 19 -31z m844 -25 c12 -34 22
-64 22 -68 0 -6 -110 2 -118 9 -2 1 12 32 30 69 18 36 35 62 38 58 4 -4 16
-34 28 -68z m-1656 -64 c41 -53 77 -101 81 -107 7 -11 -21 -83 -32 -83 -3 0
-36 69 -73 152 -37 83 -63 147 -59 142 5 -5 42 -52 83 -104z m264 67 c-6 -32
-46 -83 -46 -59 0 16 43 102 48 97 2 -2 2 -19 -2 -38z m1514 -8 c0 -9 3 -31 6
-48 6 -26 3 -31 -13 -31 -14 0 -24 14 -38 53 -10 28 -20 58 -23 65 -3 9 6 8
32 -4 20 -10 36 -25 36 -35z m-1346 33 c3 -5 -22 -35 -54 -67 -52 -52 -60 -56
-60 -36 0 35 59 111 86 111 13 0 25 -4 28 -8z m711 -39 c19 -9 35 -20 35 -24
0 -4 -13 -17 -29 -28 l-29 -21 -6 28 c-4 15 -9 35 -12 45 -7 21 -3 21 41 0z
m-1042 -46 c25 -22 34 -36 29 -45 -7 -10 -19 -1 -46 33 -44 53 -37 58 17 12z
m384 11 c-4 -12 -2 -27 4 -34 11 -13 3 -17 -61 -29 l-35 -7 45 46 c24 25 46
46 48 46 2 0 2 -10 -1 -22z m70 -10 c-3 -8 -6 -5 -6 6 -1 11 2 17 5 13 3 -3 4
-12 1 -19z m718 -20 c31 -14 31 -18 -3 -42 -15 -11 -41 -30 -58 -43 -27 -20
-32 -21 -50 -8 -18 14 -17 17 28 60 53 51 48 49 83 33z m675 -8 c11 -7 5 -10
-23 -10 -23 0 -36 4 -32 10 8 13 35 13 55 0z m-1142 -60 l-23 -40 -9 31 c-10
33 2 49 37 49 16 0 16 -4 -5 -40z m218 5 c20 -30 8 -57 -13 -29 -8 10 -19 27
-24 37 -16 28 18 21 37 -8z m582 6 l24 -6 -21 -19 c-25 -23 -66 -15 -74 14 -4
16 0 20 21 19 15 -1 38 -4 50 -8z m-733 -31 c-9 -16 -18 -30 -21 -30 -2 0 2
14 11 30 9 17 18 30 21 30 2 0 -2 -13 -11 -30z m-654 -23 l-23 -22 17 28 c10
15 20 25 23 22 3 -3 -5 -16 -17 -28z m1828 17 c3 -3 -4 -11 -15 -19 -29 -22
-155 -87 -159 -83 -3 2 -7 30 -11 61 l-7 58 94 -7 c52 -4 96 -8 98 -10z m-699
-46 c4 -18 11 -41 15 -50 6 -16 4 -16 -39 -2 -25 9 -46 18 -46 21 0 9 53 73
57 69 3 -2 8 -19 13 -38z m-825 -8 c17 0 17 -2 5 -10 -8 -5 -33 -10 -55 -10
-46 0 -65 -14 -65 -45 0 -35 20 -45 92 -45 37 0 68 -3 68 -7 -2 -34 -58 -265
-62 -258 -10 17 -148 337 -148 344 0 15 77 40 110 36 19 -3 44 -5 55 -5z
m1244 -92 c1 -24 -8 -22 -44 7 l-29 24 24 26 25 26 12 -33 c6 -18 12 -41 12
-50z m-1445 -24 c14 -31 26 -58 26 -61 0 -2 -20 20 -44 49 -24 29 -41 56 -39
61 12 20 34 1 57 -49z m987 14 c22 -6 39 -14 39 -18 0 -4 -22 -53 -48 -109
l-49 -101 -12 40 c-9 32 -9 58 0 120 7 44 17 80 22 80 5 0 27 -5 48 -12z
m-1065 -50 c21 -28 80 -103 131 -166 51 -64 93 -119 93 -124 0 -5 -82 60 -181
143 l-181 152 43 23 c24 13 47 23 51 24 3 0 23 -23 44 -52z m713 31 c-22 -14
-33 -10 -19 6 7 8 17 12 22 9 6 -4 5 -10 -3 -15z m-269 7 c0 -2 -21 -39 -46
-82 -25 -44 -44 -72 -41 -64 2 9 10 42 17 75 7 33 14 63 17 68 4 7 53 10 53 3z
m981 -6 c39 -21 9 -41 -35 -24 -13 5 -14 9 -5 20 14 17 15 17 40 4z m234 -10
c-10 -11 -21 -17 -24 -14 -3 3 3 12 13 20 28 20 32 17 11 -6z m-804 -93 c6
-26 9 -50 7 -53 -5 -5 -58 125 -58 141 1 24 40 -45 51 -88z m342 77 c12 -4 6
-13 -21 -39 -20 -18 -38 -32 -40 -30 -5 5 31 75 39 75 4 0 14 -3 22 -6z m-439
-50 c5 -14 4 -15 -9 -4 -17 14 -19 20 -6 20 5 0 12 -7 15 -16z m576 -4 c-8 -6
-24 -16 -35 -22 -20 -11 -20 -11 -1 11 11 11 26 21 35 21 14 0 14 -2 1 -10z
m170 -45 c0 -5 -59 -36 -114 -59 -49 -20 -44 -15 25 29 48 30 89 44 89 30z
m-730 -145 c0 -4 -412 -70 -417 -66 -1 1 62 48 140 104 l142 101 68 -67 c37
-36 67 -69 67 -72z m85 -80 c18 -20 17 -20 -56 -20 -41 0 -92 3 -114 7 l-40 7
65 12 c99 18 125 17 145 -6z"/>
</g>
</svg>
